# xmcd CD database file
#
# Track frame offsets:
#	150
#	25076
#	42203
#	63424
#	87383
#	105977
#	121529
#	139103
#	163804
#	180656
#	199040
#	218386
#	234533
#	261589
#	281063
#
# Disc length: 4130 seconds
#
# Revision: 0
# Processed by: cddbd v1.5.2PL0 Copyright (c) Steve Scherf et al.
# Submitted via: CDex 1.50beta10
#
DISCID=cd10200f
DTITLE=Best Of Jazz 5(Crossroad Soul Deep Blues 2) - ¥N¨O¿Ô§h5
DYEAR=1990
DGENRE=Jazz
TTITLE0=I've Got The Blues All Over Me - Jerry McCain
TTITLE1=I Wish It Would Rain Down - Millie Jackson
TTITLE2=Ugly Man - Little Johnny Taylor
TTITLE3=Since I Met You - Ruby Andrews
TTITLE4=What Mean Feeling - Synethia
TTITLE5=The Fire Below - The Shadows
TTITLE6=Don't Say That No More - Legendary Blues Band
TTITLE7=Sweet Sixteen - Buster Benton
TTITLE8=Deep Blues - Frank Frost
TTITLE9=Instant Breakfast - Trudy Lynn
TTITLE10=Living Too Close To The Edge - Sonny Rhodes
TTITLE11=It's A Dirty Job-Mary - Ann Brandon
TTITLE12=Love Me With A Feeling - Clarence Carter
TTITLE13=Breakin' Up Somebody Else's Home - Millie Jackson
TTITLE14=Come Back Baby - Homesick James and The Hypnotics
EXTD=YEAR: 1990
EXTT0=
EXTT1=
EXTT2=
EXTT3=
EXTT4=
EXTT5=
EXTT6=
EXTT7=
EXTT8=
EXTT9=
EXTT10=
EXTT11=
EXTT12=
EXTT13=
EXTT14=
PLAYORDER=
